<svg viewBox="0 0 150 150" xmlns="http://www.w3.org/2000/svg"><g fill="#333c45" fill-rule="evenodd"><path d="m49.58 49.77a1.37 1.37 0 0 0 -.31-1.23 1.34 1.34 0 0 0 -1.51-.34 2.25 2.25 0 0 0 -.85.8l-2.79 3.48-.21.27.58.46 1.51 1.21 1.47-1.8 1.53-1.85a2.92 2.92 0 0 0 .58-1z"/><path d="m49.65 57.36.14.11 2.63-3.28 1-1.19a1.34 1.34 0 0 0 -1-2.25 1.44 1.44 0 0 0 -1.09.61l-1.16 1.45-2.38 3 1.24 1z"/><path d="m75.25 32.14a42.86 42.86 0 1 0 42.86 42.86 42.86 42.86 0 0 0 -42.86-42.86zm-6.92 2.68 4-.45 2.9 8.48 2.9-8.48 4 .45.45 12-3.13-.44-.3-8-2.83 8h-2.19l-2.82-8-.3 8-3.13.44zm-27 19.84-1-.78-.11-.09.16-.21 2.5-3.12 2.91-3.64.56-.7a2.89 2.89 0 0 1 5.09 1.13 3 3 0 0 1 -.07 1.61l.22-.18a3.34 3.34 0 0 1 1.54-.61 3.24 3.24 0 0 1 3.6 2.84 3.26 3.26 0 0 1 -.11 1.28 6.47 6.47 0 0 1 -1.33 2.05l-3 3.73-2.47 3.09-.18.23a.23.23 0 0 1 -.1-.07l-.93-.74-3.61-2.88zm33.91 47.13a26.79 26.79 0 1 1 26.76-26.79 26.78 26.78 0 0 1 -26.79 26.79zm25.55-40.64-1.53-2.63 5.3-7-8 3.64-2.24-2.07 7.25-9.52 2.24 2.08-4.19 5.49 6.7-3.07 2 2.44-4.46 5.86 6.28-2.88 1.53 2.63z"/><path d="m75.25 49.57a26.13 26.13 0 0 0 -25.43 25.43h25.43zm0 50.86a26.13 26.13 0 0 0 25.43-25.43h-25.43z"/></g></svg>